<?xml version="1.0" encoding="UTF-8" standalone="no"?>
<svg
   xmlns:dc="http://purl.org/dc/elements/1.1/"
   xmlns:cc="http://creativecommons.org/ns#"
   xmlns:rdf="http://www.w3.org/1999/02/22-rdf-syntax-ns#"
   xmlns:svg="http://www.w3.org/2000/svg"
   xmlns="http://www.w3.org/2000/svg"
   xmlns:sodipodi="http://sodipodi.sourceforge.net/DTD/sodipodi-0.dtd"
   xmlns:inkscape="http://www.inkscape.org/namespaces/inkscape"
   viewBox="0 0 142 122"
   version="1.1"
   x="0px"
   y="0px"
   id="svg22"
   sodipodi:docname="icon.svg"
   width="142"
   height="122"
   inkscape:version="0.92.5 (2060ec1f9f, 2020-04-08)">
  <metadata
     id="metadata28">
    <rdf:RDF>
      <cc:Work
         rdf:about="">
        <dc:format>image/svg+xml</dc:format>
        <dc:type
           rdf:resource="http://purl.org/dc/dcmitype/StillImage" />
        <dc:title>chat-bot</dc:title>
      </cc:Work>
    </rdf:RDF>
  </metadata>
  <defs
     id="defs26" />
  <sodipodi:namedview
     pagecolor="#ffffff"
     bordercolor="#666666"
     borderopacity="1"
     objecttolerance="10"
     gridtolerance="10"
     guidetolerance="10"
     inkscape:pageopacity="0"
     inkscape:pageshadow="2"
     inkscape:window-width="1362"
     inkscape:window-height="679"
     id="namedview24"
     showgrid="false"
     inkscape:zoom="0.944"
     inkscape:cx="62.923728"
     inkscape:cy="125"
     inkscape:window-x="0"
     inkscape:window-y="786"
     inkscape:window-maximized="0"
     inkscape:current-layer="svg22" />
  <title
     id="title2">chat-bot</title>
  <desc
     id="desc4">Created with Sketch.</desc>
  <g
     id="g16"
     transform="translate(-32.720339,-41.254238)"
     style="fill:#006b75;fill-rule:evenodd;stroke:none;stroke-width:1;fill-opacity:1">
    <g
       transform="translate(33,43)"
       id="g14"
       style="fill:#006b75;fill-rule:nonzero;fill-opacity:1">
      <path
         d="M 72.797798,106.62684 C 75.52412,108.13896 78.661507,109 82,109 h 0.492441 c 4.971463,4.43416 11.942804,7 20.007559,7 8.06476,0 15.0361,-2.56584 20.00756,-7 H 123 c 3.33849,0 6.47588,-0.86104 9.2022,-2.37316 C 126.48032,116.14112 115.56638,122 102.5,122 89.433623,122 78.519679,116.14112 72.797798,106.62684 Z M 142,90 c 0,10.49341 -8.50659,19 -19,19 H 82 c -10.49341,0 -19,-8.50659 -19,-19 0,-7.221272 4.028557,-13.501623 9.960846,-16.716229 l 0.09396,-0.05057 v 0 c 5.412129,-9.473413 15.1322,-16.097653 26.445729,-17.100832 l -2.81e-4,-6.615691 C 95.723546,48.260825 93,44.698472 93,40.5 c 0,-5.246705 4.253295,-9.5 9.5,-9.5 5.24671,0 9.5,4.253295 9.5,9.5 0,4.198103 -2.72307,7.760199 -6.49926,9.016347 l -2.7e-4,6.616111 c 11.3131,1.003481 21.03275,7.627609 26.44472,17.100738 l 0.094,0.05057 C 137.97144,76.498377 142,82.778728 142,90 Z M 123,77 H 82 c -7.179702,0 -13,5.820298 -13,13 0,7.179702 5.820298,13 13,13 h 41 c 7.1797,0 13,-5.820298 13,-13 0,-7.179702 -5.8203,-13 -13,-13 z M 102.5,62 c -8.048242,0 -15.308837,3.458789 -20.421183,9 H 122.92118 C 117.80884,65.458789 110.54824,62 102.5,62 Z m 0,-25 c -1.933,0 -3.5,1.567003 -3.5,3.5 0,1.932997 1.567,3.5 3.5,3.5 1.933,0 3.5,-1.567003 3.5,-3.5 0,-1.932997 -1.567,-3.5 -3.5,-3.5 z"
         id="path6"
         inkscape:connector-curvature="0"
         style="fill:#006b75;fill-opacity:1" />
      <path
         d="m 14,0 h 49 c 7.731987,0 14,6.2680135 14,14 V 44.896608 C 77,49.924273 72.924273,54 67.896608,54 h -8.603392 c -0.276142,0 -0.5,0.223858 -0.5,0.5 v 7.219647 c 0,1.656854 -1.343146,3 -3,3 -0.686144,0 -1.351555,-0.235205 -1.885284,-0.666397 L 41.601506,54.111066 C 41.512551,54.039201 41.401649,54 41.287291,54 H 14 C 6.2680135,54 0,47.731986 0,40 V 14 C 0,6.2680135 6.2680135,0 14,0 Z m 38.793216,54.5 c 0,-3.589851 2.910149,-6.5 6.5,-6.5 h 8.603392 C 69.610564,48 71,46.610564 71,44.896608 V 14 C 71,9.581722 67.418278,6 63,6 H 14 C 9.581722,6 6,9.581722 6,14 v 26 c 0,4.418278 3.581722,8 8,8 h 27.287291 c 1.486646,0 2.928369,0.50961 4.084783,1.44386 l 7.421142,5.995433 z"
         id="path8"
         inkscape:connector-curvature="0"
         style="fill:#006b75;fill-opacity:1" />
      <path
         d="m 38.5,31 c 1.656854,0 3,1.343146 3,3 0,1.656854 -1.343146,3 -3,3 v 0 h -22 c -1.656854,0 -3,-1.343146 -3,-3 0,-1.656854 1.343146,-3 3,-3 v 0 z M 61.166016,16.5 c 1.656854,0 3,1.343146 3,3 0,1.656854 -1.343146,3 -3,3 v 0 H 16.5 c -1.656854,0 -3,-1.343146 -3,-3 0,-1.656854 1.343146,-3 3,-3 v 0 z"
         id="path10"
         inkscape:connector-curvature="0"
         style="fill:#006b75;fill-opacity:1" />
      <path
         d="m 114.5,83.264706 c 1.65685,0 3,1.343146 3,3 v 0 8.377269 c 0,1.656854 -1.34315,3 -3,3 -1.65685,0 -3,-1.343146 -3,-3 v 0 -8.377269 c 0,-1.656854 1.34315,-3 3,-3 z m -24.25,0 c 1.656854,0 3,1.343146 3,3 v 0 8.377269 c 0,1.656854 -1.343146,3 -3,3 -1.656854,0 -3,-1.343146 -3,-3 v 0 -8.377269 c 0,-1.656854 1.343146,-3 3,-3 z"
         id="path12"
         inkscape:connector-curvature="0"
         style="fill:#006b75;fill-opacity:1" />
    </g>
  </g>
</svg>
